HIERARCHY
ROOT Hips
{
	OFFSET 0.00000 0.00000 0.00000
	CHANNELS 6 Xposition Yposition Zposition Zrotation Yrotation Xrotation 
	JOINT RightUpLegDummy
	{
		OFFSET 0 0 0
		CHANNELS 3 Zrotation Yrotation Xrotation
		JOINT RightUpLeg
		{
			OFFSET -3.52197 -3.41223 0.04002
			CHANNELS 3 Zrotation Yrotation Xrotation
			JOINT RightLeg
			{
				OFFSET 0.00006 -17.42390 1.60435
				CHANNELS 3 Zrotation Yrotation Xrotation
				JOINT RightFoot
				{
					OFFSET 0.06153 -16.50078 -1.63901
					CHANNELS 3 Zrotation Yrotation Xrotation
					JOINT RightToes
					{
						OFFSET 0.00298 -1.73825 3.34613
						CHANNELS 3 Zrotation Yrotation Xrotation
						End Site
						{
							OFFSET 0.00480 -0.05416 3.85043
						}
					}
				}
			}
		}
	}
	JOINT SpineDummy
	{
		OFFSET 0 0 0
		CHANNELS 3 Zrotation Yrotation Xrotation
		JOINT Spine
		{
			OFFSET 0.00000 4.68130 0.00000
			CHANNELS 3 Zrotation Yrotation Xrotation
			JOINT Spine1
			{
				OFFSET -0.00000 10.10138 0.05002
				CHANNELS 3 Zrotation Yrotation Xrotation
				JOINT HEadDummy
				{
					OFFSET 0 0 0
					CHANNELS 3 Zrotation Yrotation Xrotation
					JOINT Head
					{
						OFFSET -0.00000 3.43865 0.00438
						CHANNELS 3 Zrotation Yrotation Xrotation
						End Site
						{
							OFFSET -0.11417 5.02924 0.98962
						}
					}
				}
				JOINT LeftShoulder1Dummy
				{
					OFFSET 0 0 0
					CHANNELS 3 Zrotation Yrotation Xrotation
					JOINT LeftShoulder1
					{
						OFFSET 3.53937 -0.14262 -0.08662
						CHANNELS 3 Zrotation Yrotation Xrotation
						JOINT LeftArm
						{
							OFFSET 4.04833 -0.00133 0.12681
							CHANNELS 3 Zrotation Yrotation Xrotation
							JOINT LeftForeArm
							{
								OFFSET 10.33880 -0.01036 -0.55515
								CHANNELS 3 Zrotation Yrotation Xrotation
								JOINT LeftHand
								{
									OFFSET 8.69677 0.07543 0.40060
									CHANNELS 3 Zrotation Yrotation Xrotation
									End Site
									{
										OFFSET 5.28377 -0.21905 0.59205
									}
								}
							}
						}
					}
				}
				JOINT RightShoulderDummy
				{
					OFFSET 0 0 0
					CHANNELS 3 Zrotation Yrotation Xrotation
					JOINT RightShoulder
					{
						OFFSET -3.53937 -0.14262 -0.08660
						CHANNELS 3 Zrotation Yrotation Xrotation
						JOINT RightArm
						{
							OFFSET -4.04833 -0.00133 0.12683
							CHANNELS 3 Zrotation Yrotation Xrotation
							JOINT RightForeArm
							{
								OFFSET -10.37987 -0.01039 -0.55511
								CHANNELS 3 Zrotation Yrotation Xrotation
								JOINT RightHand
								{
									OFFSET -8.67398 0.07538 0.40058
									CHANNELS 3 Zrotation Yrotation Xrotation
									End Site
									{
										OFFSET -5.24810 -0.21916 0.59204
									}
								}
							}
						}
					}
				}
			}
		}
	}
	JOINT LeftUpLegDummy
	{
		OFFSET 0 0 0
		CHANNELS 3 Zrotation Yrotation Xrotation
		JOINT LeftUpLeg
		{
			OFFSET 3.52197 -3.41223 0.04002
			CHANNELS 3 Zrotation Yrotation Xrotation
			JOINT LeftLeg
			{
				OFFSET -0.00012 -17.42399 1.60337
				CHANNELS 3 Zrotation Yrotation Xrotation
				JOINT LeftFoot
				{
					OFFSET -0.09972 -16.50070 -1.63802
					CHANNELS 3 Zrotation Yrotation Xrotation
					JOINT LeftToes
					{
						OFFSET -0.01575 -1.73823 3.34611
						CHANNELS 3 Zrotation Yrotation Xrotation
						End Site
						{
							OFFSET 0.03150 -0.01868 3.85031
						}
					}
				}
			}
		}
	}
}
MOTION
Frames: 11
Frame Time: 0.033333
14.6776 38.0809 -0.6942 -134.9050 86.2878 -145.2100 0.0000 0.0000 0.0000 7.2287 -8.3504 -12.5799 -7.8879 -15.2039 23.7936 -5.3484 0.1348 -7.8740 0.0000 0.0000 0.0000 0.0000 0.0000 0.0000 4.9194 -1.1536 6.2694 -0.0498 -1.1226 3.6371 -0.0000 0.0000 -0.0000 -0.1069 -4.4454 -3.3608 -0.0000 0.0000 -0.0000 -45.5166 -3.1190 3.4573 -29.8445 -0.2283 1.2665 -11.5614 -5.6831 32.0553 5.3778 0.0211 -0.2470 -0.0000 0.0000 -0.0000 37.8740 0.0442 1.5627 38.0415 6.6000 -1.2952 10.1558 0.2397 32.2792 -13.4169 -1.1572 -0.4962 0.0000 0.0000 0.0000 1.1292 3.4146 18.4610 13.6095 12.9574 40.7221 -12.8263 0.9609 -2.7699 0.0000 0.0000 0.0000
15.8816 38.1201 -0.5419 -139.0040 85.3355 -149.5520 0.0000 0.0000 0.0000 7.2308 -7.7343 -10.9562 -8.4447 -16.5855 25.6069 -4.7787 -0.0073 -10.5876 0.0000 0.0000 0.0000 0.0000 0.0000 0.0000 5.0794 -1.1122 7.0958 0.1340 -1.0994 2.9372 -0.0000 0.0000 -0.0000 0.3486 -5.3497 -3.3496 -0.0000 0.0000 -0.0000 -45.3613 -3.0775 3.4244 -30.6498 1.2201 1.2982 -12.2131 -3.3703 35.1255 5.3778 0.0211 -0.2470 -0.0000 0.0000 -0.0000 37.7517 0.0342 1.5537 37.8518 10.5256 -0.8081 10.2172 1.6630 30.8006 -13.7242 -0.8389 -0.5427 0.0000 0.0000 0.0000 1.3127 1.3779 12.1809 16.5042 10.6132 51.7407 -8.8763 1.2200 4.4079 0.0000 0.0000 0.0000
17.0921 38.2376 -0.4354 -143.2170 84.9136 -154.1960 0.0000 0.0000 0.0000 6.8161 -6.6010 -8.6014 -8.8110 -18.0346 26.4202 -4.1296 -0.0895 -12.5258 0.0000 0.0000 0.0000 0.0000 0.0000 0.0000 5.2935 -0.7919 7.6916 -0.1997 -0.6721 3.0962 -0.0000 0.0000 -0.0000 1.0472 -6.5930 -4.0989 -0.0000 0.0000 -0.0000 -45.2905 -3.0511 3.4055 -31.2492 2.5112 2.3338 -12.5101 -3.0778 37.1505 5.3778 0.0211 -0.2470 -0.0000 0.0000 -0.0000 37.5649 0.0360 1.5477 37.4598 14.3487 0.3359 10.3357 4.2939 28.2243 -13.8826 -0.6070 -0.5751 0.0000 0.0000 0.0000 0.9952 -0.1199 6.4367 18.2626 8.4251 59.6953 -7.0101 1.0037 5.3788 0.0000 0.0000 0.0000
18.3370 38.4363 -0.3599 -147.8680 85.3276 -159.1430 0.0000 0.0000 0.0000 6.1254 -5.2968 -5.6951 -8.7382 -19.2099 25.9655 -3.7447 -0.1447 -14.1631 0.0000 0.0000 0.0000 0.0000 0.0000 0.0000 5.3740 -0.2068 7.8604 -0.9311 0.1164 3.6181 -0.0000 0.0000 -0.0000 1.6743 -7.6881 -4.9112 -0.0000 0.0000 -0.0000 -45.2891 -3.0362 3.3977 -31.6956 4.1755 3.9317 -12.4693 -4.3755 36.9738 5.3778 0.0211 -0.2470 -0.0000 0.0000 -0.0000 37.1250 0.0581 1.5410 37.1584 18.1432 2.8730 10.2618 7.3529 25.2649 -13.9168 -0.6939 -0.5667 0.0000 0.0000 0.0000 0.1373 -0.9399 1.2129 18.9888 7.0467 64.0227 -6.9008 0.8009 2.1600 0.0000 0.0000 0.0000
19.5541 38.6287 -0.2872 -156.2540 86.1202 -167.5870 0.0000 0.0000 0.0000 5.1899 -4.0352 -2.9719 -8.3693 -20.1884 25.1231 -3.3004 -0.1850 -15.7501 0.0000 0.0000 0.0000 0.0000 0.0000 0.0000 5.2270 0.4043 7.9704 -1.8954 0.9881 3.8574 -0.0000 0.0000 -0.0000 2.0313 -8.4817 -5.2789 -0.0000 0.0000 -0.0000 -45.1032 -3.0230 3.3774 -32.2129 6.0856 5.7947 -12.1109 -6.3064 34.8045 5.3778 0.0211 -0.2470 -0.0000 0.0000 -0.0000 36.4981 0.0804 1.5274 37.1959 21.7687 7.3759 9.5628 10.4514 21.6318 -13.9424 -0.8457 -0.5506 0.0000 0.0000 0.0000 -1.0498 -1.8711 -3.6484 18.7929 6.6171 64.9156 -7.6236 0.6713 -1.4149 0.0000 0.0000 0.0000
20.7620 38.8136 -0.2311 -168.3870 86.9486 -179.7760 0.0000 0.0000 0.0000 4.1876 -3.5472 -0.1512 -7.5382 -20.3040 23.7393 -2.8073 -0.2024 -17.0160 0.0000 0.0000 0.0000 0.0000 0.0000 0.0000 5.2485 0.9167 8.0422 -3.1492 1.8446 4.1436 -0.0000 0.0000 -0.0000 2.1437 -9.0107 -5.4843 -0.0000 0.0000 -0.0000 -44.7635 -3.0096 3.3461 -32.7720 7.6915 7.2230 -11.5112 -8.0910 32.2160 5.3778 0.0211 -0.2470 -0.0000 0.0000 -0.0000 35.7826 0.0973 1.5081 37.5603 25.1487 12.5343 8.2689 13.3505 17.4800 -14.1881 -0.6758 -0.5800 0.0000 0.0000 0.0000 -2.1567 -3.0523 -7.7101 18.0939 7.1716 62.6939 -8.0570 0.5539 -3.8228 0.0000 0.0000 0.0000
21.9655 39.0009 -0.2044 174.5820 87.8915 163.0540 0.0000 0.0000 0.0000 3.2686 -3.9076 3.0750 -6.2370 -19.3479 21.4910 -2.7001 -0.2200 -17.8561 0.0000 0.0000 0.0000 0.0000 0.0000 0.0000 5.6246 1.3318 7.9290 -4.5584 2.6831 4.8483 -0.0000 0.0000 -0.0000 2.0800 -9.1760 -5.9601 -0.0000 0.0000 -0.0000 -44.6353 -2.9997 3.3318 -33.0860 8.7865 8.1753 -10.7933 -9.6177 30.0402 5.3778 0.0211 -0.2470 -0.0000 0.0000 -0.0000 35.0347 0.1236 1.4914 38.1139 28.3890 17.8387 6.6081 15.9708 12.6134 -14.6508 -0.2605 -0.6484 0.0000 0.0000 0.0000 -2.8302 -3.9672 -10.6625 16.8636 8.5379 57.4649 -8.1332 0.4554 -5.3868 0.0000 0.0000 0.0000
23.1418 39.1332 -0.1895 140.8200 88.6919 129.3210 0.0000 0.0000 0.0000 2.5326 -4.4129 6.0688 -5.1263 -17.9816 19.2188 -2.7357 -0.2454 -18.7189 0.0000 0.0000 0.0000 0.0000 0.0000 0.0000 6.0225 1.6219 7.5953 -5.7911 3.3732 5.6502 -0.0000 0.0000 -0.0000 1.8822 -8.9145 -6.6278 -0.0000 0.0000 -0.0000 -44.8528 -2.9934 3.3442 -32.9991 9.4323 8.9029 -10.1953 -10.7321 28.4608 5.3778 0.0211 -0.2470 -0.0000 0.0000 -0.0000 34.4448 0.1542 1.4820 38.6162 31.4303 22.9419 4.8123 18.2372 7.8958 -14.9375 0.0020 -0.6931 0.0000 0.0000 0.0000 -2.9757 -4.5940 -12.6521 15.0044 10.4831 49.3657 -8.6172 0.4617 -5.6768 0.0000 0.0000 0.0000
24.2992 39.2090 -0.1726 91.3061 88.7368 80.0818 0.0000 0.0000 0.0000 2.0068 -4.6763 8.6034 -4.4026 -16.7965 17.2117 -2.3688 -0.2447 -19.6502 0.0000 0.0000 0.0000 0.0000 0.0000 0.0000 6.2353 1.7700 7.1391 -6.7349 3.8263 6.2077 -0.0000 0.0000 -0.0000 1.6686 -8.4392 -7.1981 -0.0000 0.0000 -0.0000 -45.0720 -2.9880 3.3571 -32.7079 9.5133 8.8745 -10.0670 -10.9084 28.1700 5.3778 0.0211 -0.2470 -0.0000 0.0000 -0.0000 34.1947 0.1671 1.4779 38.9363 33.8952 27.2288 3.0282 20.2066 4.3786 -14.8364 -0.0014 -0.6881 0.0000 0.0000 0.0000 -2.7020 -5.4370 -13.5961 12.7390 12.9956 38.6975 -9.6794 0.6090 -4.4811 0.0000 0.0000 0.0000
25.4383 39.3015 -0.1597 57.9325 88.2548 46.8884 0.0000 0.0000 0.0000 1.6433 -4.8792 11.4853 -3.5252 -15.7174 14.5229 -1.9189 -0.2186 -19.9569 0.0000 0.0000 0.0000 0.0000 0.0000 0.0000 6.4645 1.8577 6.8429 -7.4419 4.1399 6.6128 -0.0000 0.0000 -0.0000 1.5741 -7.9481 -7.6347 -0.0000 0.0000 -0.0000 -44.9874 -2.9832 3.3486 -32.5249 9.0231 7.8570 -10.3632 -10.2018 29.1680 5.3778 0.0211 -0.2470 -0.0000 0.0000 -0.0000 34.1309 0.1724 1.4776 39.2701 35.4880 30.1449 1.4877 21.9950 2.3330 -14.6521 -0.0175 -0.6775 0.0000 0.0000 0.0000 -2.0087 -6.6517 -13.1413 9.6062 15.5890 25.8029 -10.3412 0.7783 -2.9305 0.0000 0.0000 0.0000
26.5729 39.3669 -0.1532 32.6998 87.5622 21.5631 0.0000 0.0000 0.0000 1.4653 -5.1214 14.8173 -2.5163 -14.5495 11.5459 -1.7579 -0.2054 -19.8870 0.0000 0.0000 0.0000 0.0000 0.0000 0.0000 6.7016 1.9361 6.7698 -7.7186 4.3190 7.0140 -0.0000 0.0000 -0.0000 1.5786 -7.2869 -8.0105 -0.0000 0.0000 -0.0000 -44.8053 -2.9848 3.3363 -32.4606 8.4571 6.8804 -10.5867 -9.5745 29.9839 5.3778 0.0211 -0.2470 -0.0000 0.0000 -0.0000 33.9632 0.1995 1.4822 39.9194 36.2974 31.6293 0.6085 23.5723 1.8089 -14.7124 0.0742 -0.6913 0.0000 0.0000 0.0000 -1.2076 -6.6490 -11.6286 5.6282 15.4747 12.1630 -10.0937 0.8355 -2.0318 0.0000 0.0000 0.0000
